<svg width="224" height="224" viewBox="0 0 224 224" fill="none" xmlns="http://www.w3.org/2000/svg" role="img" aria-labelledby="title">
  <title id="title">StudyMate brand icon</title>
  <rect width="224" height="224" rx="48" fill="#1F2328"/>
  <path fill="#F7F7F4" fill-rule="evenodd" clip-rule="evenodd" d="M42 66C42 57.163 49.163 50 58 50H91C101.376 50 110.732 54.393 117.306 61.423C123.885 54.393 133.252 50 143.648 50H166C174.837 50 182 57.163 182 66V163C182 171.837 174.837 179 166 179H143.648C134.231 179 125.95 183.516 120.762 190.443C119.949 191.647 118.571 192.438 117.011 192.438C115.45 192.438 114.073 191.647 113.259 190.443C108.072 183.516 99.79 179 90.374 179H58C49.163 179 42 171.837 42 163V66ZM58 66V163H90.374C97.431 163 104.153 164.582 110.153 167.419V86C110.153 74.954 101.943 66 91 66H58ZM126.153 86V167.577C131.578 164.611 137.76 163 143.648 163H166V66H143.648C133.858 66 126.153 74.954 126.153 86ZM70 89C70 84.582 73.582 81 78 81H94C98.418 81 102 84.582 102 89C102 93.418 98.418 97 94 97H78C73.582 97 70 93.418 70 89ZM70 119C70 114.582 73.582 111 78 111H94C98.418 111 102 114.582 102 119C102 123.418 98.418 127 94 127H78C73.582 127 70 123.418 70 119ZM136 89C136 84.582 139.582 81 144 81H152C156.418 81 160 84.582 160 89C160 93.418 156.418 97 152 97H144C139.582 97 136 93.418 136 89ZM171.5 25C174.414 25 176.935 27.03 177.555 29.876L180.1 41.567L191.798 44.114C194.643 44.734 196.672 47.254 196.672 50.167C196.672 53.081 194.643 55.601 191.798 56.221L180.1 58.768L177.555 70.459C176.935 73.305 174.414 75.335 171.5 75.335C168.586 75.335 166.065 73.305 165.445 70.459L162.9 58.768L151.202 56.221C148.357 55.601 146.328 53.081 146.328 50.167C146.328 47.254 148.357 44.734 151.202 44.114L162.9 41.567L165.445 29.876C166.065 27.03 168.586 25 171.5 25Z"/>
</svg>
