<svg width="224" height="224" viewBox="0 0 224 224" fill="none" xmlns="http://www.w3.org/2000/svg" role="img" aria-labelledby="title">
  <title id="title">BuddyStuddy brand icon</title>
  <rect width="224" height="224" rx="48" fill="#203166"/>
  <path fill="#FAF6E7" fill-rule="evenodd" clip-rule="evenodd" d="M42 69C42 60.163 49.163 53 58 53H87C97.964 53 107.847 57.251 115 64.128C122.153 57.251 132.036 53 143 53H166C174.837 53 182 60.163 182 69V158C182 166.837 174.837 174 166 174H143C134.459 174 126.377 176.843 119.785 182.084C118.425 183.166 116.741 183.755 115 183.755C113.259 183.755 111.575 183.166 110.215 182.084C103.623 176.843 95.541 174 87 174H58C49.163 174 42 166.837 42 158V69Z"/>
  <path fill="#BED9FA" d="M61 82C61 76.477 65.477 72 71 72H95C103.284 72 110 78.716 110 87V148C110 153.523 105.523 158 100 158H71C65.477 158 61 153.523 61 148V82Z"/>
  <path fill="#BED9FA" d="M120 87C120 78.716 126.716 72 135 72H153C158.523 72 163 76.477 163 82V148C163 153.523 158.523 158 153 158H130C124.477 158 120 153.523 120 148V87Z"/>
  <path fill="#FAF6E7" d="M115 65C119.418 65 123 68.582 123 73V181C123 185.418 119.418 189 115 189C110.582 189 107 185.418 107 181V73C107 68.582 110.582 65 115 65Z"/>
  <rect x="73" y="93" width="35" height="14" rx="7" fill="#6293E8"/>
  <rect x="73" y="119" width="35" height="14" rx="7" fill="#6293E8"/>
  <rect x="132" y="93" width="29" height="14" rx="7" fill="#6293E8"/>
  <path fill="#FFCA43" d="M170 25C173.467 25 176.462 27.411 177.199 30.799L182.26 54.062L205.532 59.125C208.919 59.862 211.328 62.856 211.328 66.322C211.328 69.788 208.919 72.783 205.532 73.52L182.26 78.582L177.199 101.846C176.462 105.234 173.467 107.645 170 107.645C166.533 107.645 163.538 105.234 162.801 101.846L157.74 78.582L134.468 73.52C131.081 72.783 128.672 69.788 128.672 66.322C128.672 62.856 131.081 59.862 134.468 59.125L157.74 54.062L162.801 30.799C163.538 27.411 166.533 25 170 25Z"/>
</svg>
